<svg xmlns="http://www.w3.org/2000/svg" width="22" height="26" viewBox="0 0 22 26" fill="none">
<g clip-path="url(#clip0_36928_2662)">
<path fill-rule="evenodd" clip-rule="evenodd" d="M16.7903 6.70348V9.37375H16.7861C19.2319 9.74741 21.1857 11.5833 21.6869 13.9788C22.1881 16.3743 21.1313 18.8255 19.0361 20.1274C16.9409 21.4293 14.2479 21.308 12.2811 19.8232L10.082 21.9968C10.1389 22.1732 10.1692 22.3569 10.1718 22.542C10.1718 23.5954 9.30785 24.4493 8.24211 24.4493C7.17637 24.4493 6.31241 23.5954 6.31241 22.542C6.31241 21.4886 7.17637 20.6346 8.24211 20.6346C8.42937 20.6373 8.6152 20.6672 8.79365 20.7234L11.0167 18.5262C9.61509 16.5553 9.57888 13.9368 10.9254 11.9289L3.62067 6.30814C2.64054 6.8642 1.39957 6.65902 0.655894 5.81796C-0.087788 4.9769 -0.127341 3.73389 0.561399 2.8483C1.25014 1.96271 2.47561 1.68086 3.48915 2.17493C4.50268 2.66901 5.02239 3.80159 4.73077 4.88077L12.1604 10.6C12.9709 9.95579 13.9392 9.53468 14.9673 9.3793V6.70348C14.2374 6.36653 13.7695 5.64372 13.7659 4.84747V4.78505C13.769 3.65019 14.699 2.73096 15.8472 2.72791H15.9104C17.0585 2.73096 17.9885 3.65019 17.9916 4.78505V4.84747C17.9881 5.64372 17.5202 6.36653 16.7903 6.70348ZM12.8396 15.1587C12.8368 16.8188 14.1956 18.1672 15.8752 18.1711L15.8822 18.1725C17.5626 18.1725 18.9248 16.826 18.9248 15.1651C18.9256 13.5049 17.5652 12.1582 15.8855 12.1564C14.2059 12.1546 12.8425 13.4985 12.8396 15.1587Z" fill="#FF4800"/>
</g>
<defs>
<clipPath id="clip0_36928_2662">
<rect width="21.8584" height="26" fill="white" transform="translate(0.0703125)"/>
</clipPath>
</defs>
</svg>